<svg xmlns="http://www.w3.org/2000/svg" viewBox="0 0 256 256">
  <g fill="#FFE01A">
    <g id="rays">
      <path d="M128 70 C 108 46, 116 22, 128 0 C 140 22, 148 46, 128 70 Z" />
      <path transform="rotate(45 128 128)" d="M128 70 C 108 46, 116 22, 128 0 C 140 22, 148 46, 128 70 Z" />
      <path transform="rotate(90 128 128)" d="M128 70 C 108 46, 116 22, 128 0 C 140 22, 148 46, 128 70 Z" />
      <path transform="rotate(135 128 128)" d="M128 70 C 108 46, 116 22, 128 0 C 140 22, 148 46, 128 70 Z" />
      <path transform="rotate(180 128 128)" d="M128 70 C 108 46, 116 22, 128 0 C 140 22, 148 46, 128 70 Z" />
      <path transform="rotate(225 128 128)" d="M128 70 C 108 46, 116 22, 128 0 C 140 22, 148 46, 128 70 Z" />
      <path transform="rotate(270 128 128)" d="M128 70 C 108 46, 116 22, 128 0 C 140 22, 148 46, 128 70 Z" />
      <path transform="rotate(315 128 128)" d="M128 70 C 108 46, 116 22, 128 0 C 140 22, 148 46, 128 70 Z" />
      <path transform="rotate(22.5 128 128)" d="M128 76 C 114 58, 118 40, 128 24 C 138 40, 142 58, 128 76 Z" />
      <path transform="rotate(67.5 128 128)" d="M128 76 C 114 58, 118 40, 128 24 C 138 40, 142 58, 128 76 Z" />
      <path transform="rotate(112.5 128 128)" d="M128 76 C 114 58, 118 40, 128 24 C 138 40, 142 58, 128 76 Z" />
      <path transform="rotate(157.5 128 128)" d="M128 76 C 114 58, 118 40, 128 24 C 138 40, 142 58, 128 76 Z" />
      <path transform="rotate(202.5 128 128)" d="M128 76 C 114 58, 118 40, 128 24 C 138 40, 142 58, 128 76 Z" />
      <path transform="rotate(247.5 128 128)" d="M128 76 C 114 58, 118 40, 128 24 C 138 40, 142 58, 128 76 Z" />
      <path transform="rotate(292.5 128 128)" d="M128 76 C 114 58, 118 40, 128 24 C 138 40, 142 58, 128 76 Z" />
      <path transform="rotate(337.5 128 128)" d="M128 76 C 114 58, 118 40, 128 24 C 138 40, 142 58, 128 76 Z" />
    </g>
    <circle cx="128" cy="128" r="54" stroke="#FFFFFF" stroke-width="6" />
  </g>
</svg>
